<svg xmlns="http://www.w3.org/2000/svg" xmlns:xlink="http://www.w3.org/1999/xlink" width="500" zoomAndPan="magnify" viewBox="0 0 375 374.999991" height="500" preserveAspectRatio="xMidYMid meet" version="1.0"><defs><g/><clipPath id="253c698993"><path d="M 88.835938 104.070312 L 286.085938 104.070312 L 286.085938 253.324219 L 88.835938 253.324219 Z M 88.835938 104.070312 " clip-rule="nonzero"/></clipPath><clipPath id="b7aa03741b"><path d="M 156 120 L 218 120 L 218 123.488281 L 156 123.488281 Z M 156 120 " clip-rule="nonzero"/></clipPath><clipPath id="b9f4259067"><path d="M 183 52.988281 L 191 52.988281 L 191 63 L 183 63 Z M 183 52.988281 " clip-rule="nonzero"/></clipPath><clipPath id="45620b3c0f"><path d="M 152.09375 63 L 185 63 L 185 104 L 152.09375 104 Z M 152.09375 63 " clip-rule="nonzero"/></clipPath><clipPath id="84e76f156e"><path d="M 190 63 L 222.59375 63 L 222.59375 104 L 190 104 Z M 190 63 " clip-rule="nonzero"/></clipPath></defs><rect x="-37.5" width="450" fill="#ffffff" y="-37.499999" height="449.999989" fill-opacity="1"/><rect x="-37.5" width="450" fill="#1e1b1b" y="-37.499999" height="449.999989" fill-opacity="1"/><g clip-path="url(#253c698993)"><path fill="#ffffff" d="M 278.382812 136.402344 L 276 141.230469 L 270.671875 142.007812 L 274.527344 145.765625 L 273.617188 151.074219 L 278.382812 148.566406 L 283.144531 151.074219 L 282.234375 145.765625 L 286.089844 142.007812 L 280.761719 141.230469 Z M 258.703125 104.085938 L 257.304688 106.917969 L 254.183594 107.371094 L 256.441406 109.578125 L 255.910156 112.691406 L 258.703125 111.222656 L 261.5 112.691406 L 260.964844 109.578125 L 263.226562 107.371094 L 260.101562 106.917969 Z M 271.492188 117.398438 L 269.714844 121 L 265.746094 121.578125 L 268.621094 124.378906 L 267.941406 128.335938 L 271.492188 126.46875 L 275.042969 128.335938 L 274.367188 124.378906 L 277.234375 121.578125 L 273.265625 121 Z M 94.160156 141.230469 L 88.832031 142.007812 L 92.6875 145.765625 L 91.777344 151.074219 L 96.542969 148.566406 L 101.304688 151.074219 L 100.394531 145.765625 L 104.25 142.007812 L 98.921875 141.230469 L 96.542969 136.402344 Z M 114.820312 106.917969 L 111.695312 107.371094 L 113.957031 109.578125 L 113.425781 112.691406 L 116.21875 111.222656 L 119.011719 112.691406 L 118.480469 109.578125 L 120.742188 107.371094 L 117.617188 106.917969 L 116.21875 104.085938 Z M 101.65625 121 L 97.6875 121.578125 L 100.558594 124.378906 L 99.878906 128.335938 L 103.429688 126.46875 L 106.980469 128.335938 L 106.300781 124.378906 L 109.175781 121.578125 L 105.207031 121 L 103.429688 117.398438 Z M 144.292969 156.253906 L 160.875 156.253906 L 160.875 150.132812 L 144.292969 150.132812 Z M 231.015625 156.253906 L 231.015625 150.132812 L 214.433594 150.132812 L 214.433594 156.253906 Z M 240.257812 125.101562 L 135.050781 125.101562 L 135.050781 131.222656 L 240.257812 131.222656 Z M 231.015625 137.617188 L 144.292969 137.617188 L 144.292969 143.738281 L 231.015625 143.738281 Z M 191.394531 235.277344 L 191.394531 150.339844 L 185.277344 150.339844 L 185.277344 235.277344 Z M 281.695312 159.191406 C 281.695312 180.78125 274.207031 201.875 260.609375 218.585938 C 247.203125 235.0625 228.464844 246.621094 207.847656 251.136719 C 205.714844 251.601562 203.59375 251.988281 201.546875 252.285156 C 196.980469 252.964844 192.304688 253.308594 187.65625 253.308594 C 183.003906 253.308594 178.328125 252.964844 173.753906 252.285156 C 171.714844 251.988281 169.597656 251.601562 167.464844 251.136719 C 146.847656 246.621094 128.109375 235.0625 114.703125 218.585938 C 101.101562 201.875 93.613281 180.78125 93.613281 159.191406 L 98.78125 159.191406 C 98.78125 200.496094 127.863281 236.890625 168.015625 245.957031 L 168.015625 150.335938 L 174.132812 150.335938 L 174.132812 247.109375 C 174.253906 247.128906 174.382812 247.152344 174.503906 247.167969 C 183.171875 248.457031 192.148438 248.457031 200.796875 247.167969 C 200.921875 247.152344 201.050781 247.128906 201.175781 247.109375 L 201.175781 150.335938 L 207.296875 150.335938 L 207.296875 245.957031 C 247.445312 236.890625 276.53125 200.496094 276.53125 159.191406 L 281.695312 159.191406 " fill-opacity="1" fill-rule="nonzero"/></g><g clip-path="url(#b7aa03741b)"><path fill="#ffffff" d="M 215.007812 120.359375 L 159.679688 120.359375 C 158.589844 120.359375 157.617188 121.089844 157.3125 122.136719 L 156.917969 123.488281 L 217.769531 123.488281 L 217.375 122.136719 C 217.070312 121.089844 216.097656 120.359375 215.007812 120.359375 Z M 215.007812 120.359375 " fill-opacity="1" fill-rule="nonzero"/></g><path fill="#ffffff" d="M 185.488281 63.746094 L 189.199219 63.746094 L 189.199219 65.6875 L 185.488281 65.6875 Z M 185.488281 63.746094 " fill-opacity="1" fill-rule="nonzero"/><g clip-path="url(#b9f4259067)"><path fill="#ffffff" d="M 189.519531 62.589844 C 190.441406 61.574219 190.992188 60.007812 190.992188 58.328125 C 190.992188 55.382812 189.355469 52.988281 187.34375 52.988281 C 185.332031 52.988281 183.695312 55.382812 183.695312 58.328125 C 183.695312 60.007812 184.246094 61.574219 185.167969 62.589844 Z M 189.519531 62.589844 " fill-opacity="1" fill-rule="nonzero"/></g><path fill="#ffffff" d="M 185.488281 66.84375 L 189.199219 66.84375 L 189.199219 111.542969 L 185.488281 111.542969 Z M 185.488281 66.84375 " fill-opacity="1" fill-rule="nonzero"/><path fill="#ffffff" d="M 172.011719 116.09375 C 170.9375 116.09375 169.980469 116.8125 169.679688 117.839844 L 169.28125 119.203125 L 205.40625 119.203125 L 205.007812 117.839844 C 204.707031 116.808594 203.75 116.09375 202.675781 116.09375 Z M 172.011719 116.09375 " fill-opacity="1" fill-rule="nonzero"/><path fill="#ffffff" d="M 184.910156 112.699219 L 178.414062 112.699219 L 178.414062 114.9375 L 196.273438 114.9375 L 196.273438 112.699219 Z M 184.910156 112.699219 " fill-opacity="1" fill-rule="nonzero"/><g clip-path="url(#45620b3c0f)"><path fill="#ffffff" d="M 176.773438 96.195312 L 173.957031 96.195312 L 167.816406 72.164062 C 168.324219 72.253906 168.828125 72.304688 169.328125 72.304688 C 171.675781 72.304688 173.484375 71.605469 175.230469 70.929688 C 176.621094 70.390625 177.933594 69.882812 179.332031 69.835938 C 181.390625 69.769531 183.257812 70.679688 184.332031 71.339844 L 184.332031 66.664062 C 183.476562 66.371094 180.894531 65.605469 178.589844 66 C 177.386719 66.203125 176.222656 66.828125 174.988281 67.492188 C 173.265625 68.417969 171.488281 69.371094 169.328125 69.371094 C 166.832031 69.371094 165.449219 68.5 164.773438 67.863281 C 164.539062 68.128906 164.265625 68.363281 163.949219 68.542969 C 163.671875 68.703125 163.320312 68.605469 163.160156 68.328125 C 163 68.054688 163.097656 67.699219 163.375 67.539062 C 164.039062 67.160156 164.453125 66.445312 164.453125 65.679688 C 164.453125 64.496094 163.492188 63.535156 162.3125 63.535156 C 161.128906 63.535156 160.167969 64.496094 160.167969 65.679688 C 160.167969 66.816406 160.828125 68.007812 161.871094 69.066406 L 154.941406 96.195312 L 152.125 96.195312 C 152.578125 100.402344 157.929688 103.734375 164.449219 103.734375 C 170.964844 103.734375 176.320312 100.402344 176.773438 96.195312 Z M 172.757812 96.195312 L 165.027344 96.195312 L 165.027344 71.257812 C 165.515625 71.488281 166.019531 71.6875 166.535156 71.847656 Z M 163.871094 70.636719 L 163.871094 96.195312 L 156.140625 96.195312 L 162.851562 69.925781 C 163.171875 70.175781 163.511719 70.417969 163.871094 70.636719 Z M 163.871094 70.636719 " fill-opacity="1" fill-rule="nonzero"/></g><g clip-path="url(#84e76f156e)"><path fill="#ffffff" d="M 219.746094 96.195312 L 212.816406 69.066406 C 213.859375 68.007812 214.519531 66.816406 214.519531 65.679688 C 214.519531 64.496094 213.558594 63.535156 212.375 63.535156 C 211.191406 63.535156 210.230469 64.496094 210.230469 65.679688 C 210.230469 66.445312 210.644531 67.160156 211.3125 67.542969 C 211.589844 67.699219 211.683594 68.054688 211.527344 68.332031 C 211.367188 68.605469 211.015625 68.703125 210.738281 68.542969 C 210.421875 68.363281 210.148438 68.128906 209.914062 67.867188 C 209.234375 68.5 207.851562 69.371094 205.359375 69.371094 C 203.199219 69.371094 201.417969 68.417969 199.699219 67.492188 C 198.464844 66.832031 197.300781 66.203125 196.097656 66 C 193.789062 65.605469 191.210938 66.371094 190.355469 66.664062 L 190.355469 71.34375 C 191.425781 70.683594 193.296875 69.773438 195.355469 69.835938 C 196.753906 69.882812 198.066406 70.390625 199.453125 70.929688 C 201.203125 71.605469 203.011719 72.304688 205.359375 72.304688 C 205.855469 72.304688 206.363281 72.253906 206.871094 72.164062 L 200.730469 96.195312 L 197.914062 96.195312 C 198.367188 100.402344 203.722656 103.734375 210.238281 103.734375 C 216.753906 103.734375 222.109375 100.402344 222.5625 96.195312 Z M 211.835938 69.925781 L 218.546875 96.195312 L 210.816406 96.195312 L 210.816406 70.636719 C 211.175781 70.417969 211.511719 70.175781 211.835938 69.925781 Z M 209.660156 71.257812 L 209.660156 96.195312 L 201.929688 96.195312 L 208.148438 71.847656 C 208.664062 71.6875 209.171875 71.488281 209.660156 71.257812 Z M 209.660156 71.257812 " fill-opacity="1" fill-rule="nonzero"/></g><g fill="#ffffff" fill-opacity="1"><g transform="translate(89.814739, 292.919721)"><g><path d="M 0.6875 0 L 0.6875 -0.84375 C 1.164062 -0.851562 1.546875 -0.894531 1.828125 -0.96875 C 2.117188 -1.039062 2.34375 -1.160156 2.5 -1.328125 C 2.664062 -1.492188 2.773438 -1.726562 2.828125 -2.03125 C 2.890625 -2.34375 2.921875 -2.742188 2.921875 -3.234375 L 2.921875 -12.96875 C 2.921875 -13.457031 2.898438 -13.851562 2.859375 -14.15625 C 2.816406 -14.457031 2.726562 -14.691406 2.59375 -14.859375 C 2.46875 -15.035156 2.285156 -15.15625 2.046875 -15.21875 C 1.816406 -15.289062 1.515625 -15.335938 1.140625 -15.359375 L 1.140625 -16.203125 L 7.890625 -16.203125 C 10.015625 -16.203125 11.644531 -15.863281 12.78125 -15.1875 C 13.925781 -14.507812 14.5 -13.535156 14.5 -12.265625 C 14.5 -10.597656 13.300781 -9.421875 10.90625 -8.734375 L 10.90625 -8.65625 C 11.675781 -8.65625 12.375 -8.546875 13 -8.328125 C 13.625 -8.109375 14.148438 -7.800781 14.578125 -7.40625 C 15.015625 -7.007812 15.351562 -6.546875 15.59375 -6.015625 C 15.832031 -5.484375 15.953125 -4.898438 15.953125 -4.265625 C 15.953125 -3.554688 15.78125 -2.929688 15.4375 -2.390625 C 15.09375 -1.859375 14.597656 -1.410156 13.953125 -1.046875 C 12.703125 -0.347656 10.984375 0 8.796875 0 Z M 8.9375 -1.28125 C 11.195312 -1.28125 12.328125 -2.296875 12.328125 -4.328125 C 12.328125 -5.578125 11.921875 -6.492188 11.109375 -7.078125 C 10.691406 -7.367188 10.148438 -7.578125 9.484375 -7.703125 C 8.816406 -7.828125 8 -7.890625 7.03125 -7.890625 L 6.015625 -7.890625 L 6.015625 -3.6875 C 6.015625 -2.8125 6.238281 -2.191406 6.6875 -1.828125 C 7.132812 -1.460938 7.882812 -1.28125 8.9375 -1.28125 Z M 7.265625 -9.15625 C 7.890625 -9.15625 8.429688 -9.210938 8.890625 -9.328125 C 9.359375 -9.453125 9.753906 -9.625 10.078125 -9.84375 C 10.753906 -10.3125 11.09375 -11.035156 11.09375 -12.015625 C 11.09375 -13.035156 10.835938 -13.773438 10.328125 -14.234375 C 9.828125 -14.691406 9.015625 -14.921875 7.890625 -14.921875 L 6.390625 -14.921875 C 6.140625 -14.921875 6.015625 -14.800781 6.015625 -14.5625 L 6.015625 -9.15625 Z M 7.265625 -9.15625 "/></g></g></g><g fill="#ffffff" fill-opacity="1"><g transform="translate(106.586156, 292.919721)"><g><path d="M 16.9375 -3.390625 C 16.9375 -2.859375 16.960938 -2.425781 17.015625 -2.09375 C 17.066406 -1.757812 17.171875 -1.503906 17.328125 -1.328125 C 17.492188 -1.160156 17.71875 -1.039062 18 -0.96875 C 18.289062 -0.894531 18.675781 -0.851562 19.15625 -0.84375 L 19.15625 0 L 11.421875 0 L 11.421875 -0.84375 C 11.941406 -0.851562 12.359375 -0.894531 12.671875 -0.96875 C 12.992188 -1.039062 13.242188 -1.160156 13.421875 -1.328125 C 13.597656 -1.492188 13.710938 -1.726562 13.765625 -2.03125 C 13.816406 -2.34375 13.84375 -2.742188 13.84375 -3.234375 L 13.84375 -7.640625 L 6.046875 -7.640625 L 6.046875 -3.390625 C 6.046875 -2.859375 6.070312 -2.425781 6.125 -2.09375 C 6.175781 -1.757812 6.285156 -1.503906 6.453125 -1.328125 C 6.628906 -1.160156 6.875 -1.039062 7.1875 -0.96875 C 7.5 -0.894531 7.914062 -0.851562 8.4375 -0.84375 L 8.4375 0 L 0.734375 0 L 0.734375 -0.84375 C 1.210938 -0.851562 1.59375 -0.894531 1.875 -0.96875 C 2.164062 -1.039062 2.390625 -1.160156 2.546875 -1.328125 C 2.703125 -1.492188 2.804688 -1.726562 2.859375 -2.03125 C 2.921875 -2.34375 2.953125 -2.742188 2.953125 -3.234375 L 2.953125 -12.96875 C 2.953125 -13.457031 2.925781 -13.851562 2.875 -14.15625 C 2.820312 -14.457031 2.722656 -14.691406 2.578125 -14.859375 C 2.441406 -15.035156 2.242188 -15.15625 1.984375 -15.21875 C 1.722656 -15.289062 1.382812 -15.335938 0.96875 -15.359375 L 0.96875 -16.203125 L 8.234375 -16.203125 L 8.234375 -15.359375 C 7.753906 -15.347656 7.367188 -15.304688 7.078125 -15.234375 C 6.796875 -15.160156 6.578125 -15.03125 6.421875 -14.84375 C 6.265625 -14.664062 6.160156 -14.414062 6.109375 -14.09375 C 6.066406 -13.78125 6.046875 -13.351562 6.046875 -12.8125 L 6.046875 -8.9375 L 13.84375 -8.9375 L 13.84375 -12.96875 C 13.84375 -13.457031 13.816406 -13.851562 13.765625 -14.15625 C 13.710938 -14.457031 13.609375 -14.691406 13.453125 -14.859375 C 13.296875 -15.035156 13.070312 -15.15625 12.78125 -15.21875 C 12.5 -15.289062 12.117188 -15.335938 11.640625 -15.359375 L 11.640625 -16.203125 L 18.921875 -16.203125 L 18.921875 -15.359375 C 18.503906 -15.347656 18.164062 -15.304688 17.90625 -15.234375 C 17.644531 -15.160156 17.441406 -15.03125 17.296875 -14.84375 C 17.160156 -14.664062 17.066406 -14.414062 17.015625 -14.09375 C 16.960938 -13.78125 16.9375 -13.351562 16.9375 -12.8125 Z M 16.9375 -3.390625 "/></g></g></g><g fill="#ffffff" fill-opacity="1"><g transform="translate(126.471975, 292.919721)"><g><path d="M 10.546875 -4.90625 L 4.59375 -4.90625 C 3.925781 -3.414062 3.59375 -2.382812 3.59375 -1.8125 C 3.59375 -1.382812 3.75 -1.113281 4.0625 -1 C 4.382812 -0.894531 4.863281 -0.84375 5.5 -0.84375 L 5.5 0 L -0.28125 0 L -0.28125 -0.84375 C 0.0625 -0.882812 0.351562 -0.9375 0.59375 -1 C 0.84375 -1.070312 1.0625 -1.171875 1.25 -1.296875 C 1.4375 -1.429688 1.597656 -1.597656 1.734375 -1.796875 C 1.878906 -2.003906 2.015625 -2.253906 2.140625 -2.546875 L 7.6875 -16.421875 L 9.234375 -16.421875 L 14.265625 -4.125 C 14.566406 -3.40625 14.816406 -2.84375 15.015625 -2.4375 C 15.222656 -2.03125 15.441406 -1.71875 15.671875 -1.5 C 15.898438 -1.28125 16.164062 -1.128906 16.46875 -1.046875 C 16.769531 -0.960938 17.160156 -0.898438 17.640625 -0.859375 L 17.640625 0 L 9.6875 0 L 9.6875 -0.859375 C 10.351562 -0.890625 10.832031 -0.957031 11.125 -1.0625 C 11.425781 -1.175781 11.578125 -1.40625 11.578125 -1.75 C 11.578125 -1.945312 11.523438 -2.195312 11.421875 -2.5 C 11.328125 -2.8125 11.195312 -3.191406 11.03125 -3.640625 Z M 5.078125 -6.171875 L 10.078125 -6.171875 L 7.65625 -12.546875 L 7.578125 -12.546875 Z M 5.078125 -6.171875 "/></g></g></g><g fill="#ffffff" fill-opacity="1"><g transform="translate(143.495908, 292.919721)"><g><path d="M 14.625 -12.140625 C 14.625 -10.972656 14.285156 -10 13.609375 -9.21875 C 12.941406 -8.4375 11.867188 -7.910156 10.390625 -7.640625 L 15.28125 -2.046875 C 15.613281 -1.648438 16.007812 -1.347656 16.46875 -1.140625 C 16.9375 -0.941406 17.410156 -0.84375 17.890625 -0.84375 L 17.890625 0 L 12.90625 0 L 7.6875 -6.390625 C 7.332031 -6.816406 7.023438 -7.101562 6.765625 -7.25 C 6.503906 -7.394531 6.265625 -7.46875 6.046875 -7.46875 L 6.046875 -3.34375 C 6.046875 -2.820312 6.078125 -2.394531 6.140625 -2.0625 C 6.210938 -1.738281 6.351562 -1.484375 6.5625 -1.296875 C 6.769531 -1.117188 7.070312 -1 7.46875 -0.9375 C 7.875 -0.875 8.414062 -0.84375 9.09375 -0.84375 L 9.09375 0 L 0.734375 0 L 0.734375 -0.84375 C 1.203125 -0.84375 1.578125 -0.875 1.859375 -0.9375 C 2.148438 -1 2.375 -1.117188 2.53125 -1.296875 C 2.695312 -1.472656 2.804688 -1.71875 2.859375 -2.03125 C 2.921875 -2.34375 2.953125 -2.742188 2.953125 -3.234375 L 2.953125 -12.96875 C 2.953125 -13.457031 2.925781 -13.851562 2.875 -14.15625 C 2.832031 -14.457031 2.742188 -14.691406 2.609375 -14.859375 C 2.472656 -15.035156 2.273438 -15.15625 2.015625 -15.21875 C 1.753906 -15.289062 1.40625 -15.335938 0.96875 -15.359375 L 0.96875 -16.203125 L 8.25 -16.203125 C 10.28125 -16.203125 11.847656 -15.84375 12.953125 -15.125 C 14.066406 -14.414062 14.625 -13.421875 14.625 -12.140625 Z M 6.046875 -8.734375 L 7.40625 -8.734375 C 8.726562 -8.734375 9.710938 -8.988281 10.359375 -9.5 C 11.015625 -10.007812 11.34375 -10.851562 11.34375 -12.03125 C 11.34375 -12.9375 11.066406 -13.660156 10.515625 -14.203125 C 9.972656 -14.753906 9.21875 -15.03125 8.25 -15.03125 L 6.421875 -15.03125 C 6.171875 -15.03125 6.046875 -14.910156 6.046875 -14.671875 Z M 6.046875 -8.734375 "/></g></g></g><g fill="#ffffff" fill-opacity="1"><g transform="translate(160.646105, 292.919721)"><g><path d="M 10.546875 -4.90625 L 4.59375 -4.90625 C 3.925781 -3.414062 3.59375 -2.382812 3.59375 -1.8125 C 3.59375 -1.382812 3.75 -1.113281 4.0625 -1 C 4.382812 -0.894531 4.863281 -0.84375 5.5 -0.84375 L 5.5 0 L -0.28125 0 L -0.28125 -0.84375 C 0.0625 -0.882812 0.351562 -0.9375 0.59375 -1 C 0.84375 -1.070312 1.0625 -1.171875 1.25 -1.296875 C 1.4375 -1.429688 1.597656 -1.597656 1.734375 -1.796875 C 1.878906 -2.003906 2.015625 -2.253906 2.140625 -2.546875 L 7.6875 -16.421875 L 9.234375 -16.421875 L 14.265625 -4.125 C 14.566406 -3.40625 14.816406 -2.84375 15.015625 -2.4375 C 15.222656 -2.03125 15.441406 -1.71875 15.671875 -1.5 C 15.898438 -1.28125 16.164062 -1.128906 16.46875 -1.046875 C 16.769531 -0.960938 17.160156 -0.898438 17.640625 -0.859375 L 17.640625 0 L 9.6875 0 L 9.6875 -0.859375 C 10.351562 -0.890625 10.832031 -0.957031 11.125 -1.0625 C 11.425781 -1.175781 11.578125 -1.40625 11.578125 -1.75 C 11.578125 -1.945312 11.523438 -2.195312 11.421875 -2.5 C 11.328125 -2.8125 11.195312 -3.191406 11.03125 -3.640625 Z M 5.078125 -6.171875 L 10.078125 -6.171875 L 7.65625 -12.546875 L 7.578125 -12.546875 Z M 5.078125 -6.171875 "/></g></g></g><g fill="#ffffff" fill-opacity="1"><g transform="translate(177.670038, 292.919721)"><g><path d="M 17.15625 -11.578125 L 16.25 -11.578125 C 16.207031 -12.265625 16.101562 -12.832031 15.9375 -13.28125 C 15.78125 -13.738281 15.550781 -14.101562 15.25 -14.375 C 14.957031 -14.65625 14.597656 -14.847656 14.171875 -14.953125 C 13.753906 -15.054688 13.269531 -15.109375 12.71875 -15.109375 C 12.164062 -15.109375 11.722656 -15.097656 11.390625 -15.078125 C 11.066406 -15.054688 10.816406 -15.019531 10.640625 -14.96875 C 10.460938 -14.925781 10.34375 -14.863281 10.28125 -14.78125 C 10.226562 -14.695312 10.203125 -14.585938 10.203125 -14.453125 L 10.203125 -3.4375 C 10.203125 -2.976562 10.234375 -2.585938 10.296875 -2.265625 C 10.359375 -1.941406 10.488281 -1.675781 10.6875 -1.46875 C 10.882812 -1.269531 11.171875 -1.117188 11.546875 -1.015625 C 11.929688 -0.910156 12.429688 -0.851562 13.046875 -0.84375 L 13.046875 0 L 4.234375 0 L 4.234375 -0.84375 C 4.859375 -0.851562 5.359375 -0.910156 5.734375 -1.015625 C 6.117188 -1.117188 6.410156 -1.269531 6.609375 -1.46875 C 6.816406 -1.675781 6.953125 -1.941406 7.015625 -2.265625 C 7.078125 -2.585938 7.109375 -2.976562 7.109375 -3.4375 L 7.109375 -14.453125 C 7.109375 -14.585938 7.082031 -14.695312 7.03125 -14.78125 C 6.988281 -14.863281 6.890625 -14.925781 6.734375 -14.96875 C 6.578125 -15.019531 6.351562 -15.054688 6.0625 -15.078125 C 5.78125 -15.097656 5.410156 -15.109375 4.953125 -15.109375 C 4.441406 -15.109375 3.953125 -15.082031 3.484375 -15.03125 C 3.023438 -14.988281 2.617188 -14.847656 2.265625 -14.609375 C 1.921875 -14.378906 1.640625 -14.03125 1.421875 -13.5625 C 1.203125 -13.09375 1.085938 -12.429688 1.078125 -11.578125 L 0.25 -11.578125 L 0.46875 -16.203125 L 16.9375 -16.203125 Z M 17.15625 -11.578125 "/></g></g></g><g fill="#ffffff" fill-opacity="1"><g transform="translate(195.072751, 292.919721)"><g><path d="M 1.15625 -12.25 C 1.664062 -12.644531 2.054688 -13.039062 2.328125 -13.4375 C 2.597656 -13.832031 2.734375 -14.207031 2.734375 -14.5625 C 2.679688 -14.53125 2.609375 -14.507812 2.515625 -14.5 C 2.421875 -14.5 2.335938 -14.5 2.265625 -14.5 C 1.941406 -14.5 1.671875 -14.628906 1.453125 -14.890625 C 1.242188 -15.148438 1.140625 -15.46875 1.140625 -15.84375 C 1.140625 -16.3125 1.289062 -16.695312 1.59375 -17 C 1.90625 -17.3125 2.289062 -17.46875 2.75 -17.46875 C 3.25 -17.46875 3.632812 -17.285156 3.90625 -16.921875 C 4.1875 -16.566406 4.328125 -16.085938 4.328125 -15.484375 C 4.328125 -14.773438 4.109375 -14.066406 3.671875 -13.359375 C 3.242188 -12.660156 2.609375 -11.992188 1.765625 -11.359375 Z M 1.15625 -12.25 "/></g></g></g><g fill="#ffffff" fill-opacity="1"><g transform="translate(200.165198, 292.919721)"><g><path d="M 1.140625 -5.359375 L 1.953125 -5.359375 C 2.148438 -4.035156 2.679688 -2.988281 3.546875 -2.21875 C 4.421875 -1.457031 5.5 -1.078125 6.78125 -1.078125 C 7.300781 -1.078125 7.773438 -1.140625 8.203125 -1.265625 C 8.640625 -1.390625 9.007812 -1.566406 9.3125 -1.796875 C 9.625 -2.023438 9.863281 -2.296875 10.03125 -2.609375 C 10.207031 -2.929688 10.296875 -3.289062 10.296875 -3.6875 C 10.296875 -4.019531 10.238281 -4.304688 10.125 -4.546875 C 10.019531 -4.796875 9.820312 -5.035156 9.53125 -5.265625 C 9.238281 -5.503906 8.835938 -5.738281 8.328125 -5.96875 C 7.816406 -6.207031 7.148438 -6.484375 6.328125 -6.796875 C 4.691406 -7.429688 3.476562 -8.164062 2.6875 -9 C 1.90625 -9.832031 1.515625 -10.816406 1.515625 -11.953125 C 1.515625 -12.609375 1.640625 -13.207031 1.890625 -13.75 C 2.140625 -14.300781 2.492188 -14.773438 2.953125 -15.171875 C 3.410156 -15.566406 3.957031 -15.875 4.59375 -16.09375 C 5.238281 -16.3125 5.945312 -16.421875 6.71875 -16.421875 C 7.425781 -16.421875 8.097656 -16.304688 8.734375 -16.078125 C 9.367188 -15.859375 9.992188 -15.519531 10.609375 -15.0625 L 10.984375 -16.125 L 11.484375 -16.125 L 11.71875 -11.578125 L 10.90625 -11.578125 C 10.5625 -12.722656 10.03125 -13.597656 9.3125 -14.203125 C 8.601562 -14.816406 7.78125 -15.125 6.84375 -15.125 C 5.96875 -15.125 5.257812 -14.910156 4.71875 -14.484375 C 4.1875 -14.054688 3.921875 -13.507812 3.921875 -12.84375 C 3.921875 -12.539062 3.96875 -12.273438 4.0625 -12.046875 C 4.15625 -11.816406 4.335938 -11.597656 4.609375 -11.390625 C 4.878906 -11.179688 5.242188 -10.96875 5.703125 -10.75 C 6.160156 -10.53125 6.757812 -10.285156 7.5 -10.015625 C 8.476562 -9.640625 9.3125 -9.257812 10 -8.875 C 10.695312 -8.488281 11.265625 -8.070312 11.703125 -7.625 C 12.148438 -7.1875 12.476562 -6.722656 12.6875 -6.234375 C 12.894531 -5.742188 13 -5.203125 13 -4.609375 C 13 -3.890625 12.84375 -3.234375 12.53125 -2.640625 C 12.226562 -2.054688 11.800781 -1.550781 11.25 -1.125 C 10.695312 -0.707031 10.035156 -0.378906 9.265625 -0.140625 C 8.503906 0.0859375 7.660156 0.203125 6.734375 0.203125 C 5.890625 0.203125 5.128906 0.0859375 4.453125 -0.140625 C 3.785156 -0.367188 3.09375 -0.742188 2.375 -1.265625 L 1.953125 0 L 1.453125 0 Z M 1.140625 -5.359375 "/></g></g></g><g fill="#ffffff" fill-opacity="1"><g transform="translate(214.116836, 292.919721)"><g/></g></g><g fill="#ffffff" fill-opacity="1"><g transform="translate(219.714329, 292.919721)"><g><path d="M 9.9375 -16.421875 C 11.195312 -16.421875 12.375 -16.203125 13.46875 -15.765625 C 14.5625 -15.328125 15.507812 -14.726562 16.3125 -13.96875 C 17.125 -13.21875 17.757812 -12.328125 18.21875 -11.296875 C 18.6875 -10.273438 18.921875 -9.171875 18.921875 -7.984375 C 18.921875 -6.835938 18.6875 -5.765625 18.21875 -4.765625 C 17.75 -3.773438 17.109375 -2.910156 16.296875 -2.171875 C 15.492188 -1.441406 14.546875 -0.863281 13.453125 -0.4375 C 12.359375 -0.0078125 11.1875 0.203125 9.9375 0.203125 C 8.6875 0.203125 7.515625 -0.0078125 6.421875 -0.4375 C 5.328125 -0.863281 4.375 -1.441406 3.5625 -2.171875 C 2.75 -2.910156 2.109375 -3.773438 1.640625 -4.765625 C 1.179688 -5.765625 0.953125 -6.835938 0.953125 -7.984375 C 0.953125 -9.171875 1.179688 -10.273438 1.640625 -11.296875 C 2.109375 -12.328125 2.742188 -13.21875 3.546875 -13.96875 C 4.347656 -14.726562 5.296875 -15.328125 6.390625 -15.765625 C 7.492188 -16.203125 8.675781 -16.421875 9.9375 -16.421875 Z M 9.9375 -1.15625 C 10.75 -1.15625 11.484375 -1.3125 12.140625 -1.625 C 12.804688 -1.945312 13.367188 -2.398438 13.828125 -2.984375 C 14.285156 -3.566406 14.640625 -4.273438 14.890625 -5.109375 C 15.140625 -5.941406 15.265625 -6.875 15.265625 -7.90625 C 15.265625 -9.007812 15.140625 -10 14.890625 -10.875 C 14.640625 -11.75 14.285156 -12.5 13.828125 -13.125 C 13.367188 -13.75 12.804688 -14.222656 12.140625 -14.546875 C 11.484375 -14.878906 10.75 -15.046875 9.9375 -15.046875 C 9.101562 -15.046875 8.359375 -14.878906 7.703125 -14.546875 C 7.054688 -14.222656 6.5 -13.75 6.03125 -13.125 C 5.570312 -12.5 5.21875 -11.75 4.96875 -10.875 C 4.726562 -10 4.609375 -9.007812 4.609375 -7.90625 C 4.609375 -6.875 4.726562 -5.941406 4.96875 -5.109375 C 5.21875 -4.273438 5.570312 -3.566406 6.03125 -2.984375 C 6.5 -2.398438 7.054688 -1.945312 7.703125 -1.625 C 8.359375 -1.3125 9.101562 -1.15625 9.9375 -1.15625 Z M 9.9375 -1.15625 "/></g></g></g><g fill="#ffffff" fill-opacity="1"><g transform="translate(239.558054, 292.919721)"><g><path d="M 18.671875 -4.078125 L 21.515625 -12.203125 C 21.847656 -13.148438 22.015625 -13.851562 22.015625 -14.3125 C 22.015625 -14.75 21.863281 -15.03125 21.5625 -15.15625 C 21.257812 -15.289062 20.789062 -15.359375 20.15625 -15.359375 L 20.15625 -16.203125 L 26.140625 -16.203125 L 26.140625 -15.359375 C 25.609375 -15.359375 25.128906 -15.226562 24.703125 -14.96875 C 24.273438 -14.707031 23.945312 -14.269531 23.71875 -13.65625 L 18.640625 0.203125 L 16.78125 0.203125 L 13.109375 -10.90625 L 8.9375 0.203125 L 7.203125 0.203125 L 2.734375 -12.078125 C 2.472656 -12.796875 2.226562 -13.367188 2 -13.796875 C 1.769531 -14.234375 1.53125 -14.5625 1.28125 -14.78125 C 1.03125 -15.007812 0.753906 -15.160156 0.453125 -15.234375 C 0.160156 -15.304688 -0.1875 -15.34375 -0.59375 -15.34375 L -0.59375 -16.203125 L 7.359375 -16.203125 L 7.359375 -15.34375 C 6.648438 -15.34375 6.160156 -15.273438 5.890625 -15.140625 C 5.628906 -15.003906 5.5 -14.785156 5.5 -14.484375 C 5.5 -14.367188 5.503906 -14.257812 5.515625 -14.15625 C 5.523438 -14.050781 5.550781 -13.929688 5.59375 -13.796875 C 5.632812 -13.660156 5.6875 -13.492188 5.75 -13.296875 C 5.8125 -13.097656 5.898438 -12.851562 6.015625 -12.5625 L 8.96875 -4.078125 L 12.375 -13.390625 C 12.238281 -13.765625 12.097656 -14.070312 11.953125 -14.3125 C 11.816406 -14.550781 11.648438 -14.738281 11.453125 -14.875 C 11.265625 -15.019531 11.050781 -15.125 10.8125 -15.1875 C 10.570312 -15.25 10.285156 -15.300781 9.953125 -15.34375 L 9.953125 -16.203125 L 17.390625 -16.203125 L 17.390625 -15.34375 C 16.796875 -15.34375 16.359375 -15.269531 16.078125 -15.125 C 15.796875 -14.976562 15.65625 -14.691406 15.65625 -14.265625 C 15.65625 -14.054688 15.6875 -13.8125 15.75 -13.53125 C 15.8125 -13.25 15.898438 -12.925781 16.015625 -12.5625 Z M 18.671875 -4.078125 "/></g></g></g><g fill="#ffffff" fill-opacity="1"><g transform="translate(265.378038, 292.919721)"><g><path d="M 14.09375 0.203125 L 4.78125 -13.0625 L 4.6875 -13.0625 L 4.6875 -4.015625 C 4.6875 -3.316406 4.710938 -2.765625 4.765625 -2.359375 C 4.816406 -1.953125 4.921875 -1.632812 5.078125 -1.40625 C 5.242188 -1.1875 5.46875 -1.039062 5.75 -0.96875 C 6.039062 -0.894531 6.414062 -0.851562 6.875 -0.84375 L 6.875 0 L 0.625 0 L 0.625 -0.84375 C 1.144531 -0.851562 1.5625 -0.894531 1.875 -0.96875 C 2.195312 -1.050781 2.445312 -1.195312 2.625 -1.40625 C 2.800781 -1.613281 2.914062 -1.910156 2.96875 -2.296875 C 3.019531 -2.691406 3.046875 -3.21875 3.046875 -3.875 L 3.046875 -12.328125 C 3.046875 -12.921875 3.019531 -13.410156 2.96875 -13.796875 C 2.914062 -14.179688 2.8125 -14.484375 2.65625 -14.703125 C 2.5 -14.929688 2.273438 -15.09375 1.984375 -15.1875 C 1.703125 -15.28125 1.320312 -15.335938 0.84375 -15.359375 L 0.84375 -16.203125 L 6.71875 -16.203125 L 15.203125 -4.046875 L 15.28125 -4.046875 L 15.28125 -12.1875 C 15.28125 -12.875 15.253906 -13.421875 15.203125 -13.828125 C 15.148438 -14.242188 15.046875 -14.5625 14.890625 -14.78125 C 14.734375 -15.007812 14.507812 -15.160156 14.21875 -15.234375 C 13.925781 -15.304688 13.550781 -15.347656 13.09375 -15.359375 L 13.09375 -16.203125 L 19.34375 -16.203125 L 19.34375 -15.359375 C 18.820312 -15.347656 18.398438 -15.300781 18.078125 -15.21875 C 17.765625 -15.144531 17.519531 -15.003906 17.34375 -14.796875 C 17.175781 -14.585938 17.0625 -14.285156 17 -13.890625 C 16.945312 -13.492188 16.921875 -12.972656 16.921875 -12.328125 L 16.921875 0.203125 Z M 14.09375 0.203125 "/></g></g></g><g fill="#ffffff" fill-opacity="1"><g transform="translate(152.314183, 317.801973)"><g><path d="M 11.8125 0 L 0.765625 0 L 0.765625 -0.65625 C 1.171875 -0.664062 1.492188 -0.695312 1.734375 -0.75 C 1.984375 -0.8125 2.175781 -0.910156 2.3125 -1.046875 C 2.445312 -1.179688 2.535156 -1.375 2.578125 -1.625 C 2.628906 -1.875 2.65625 -2.195312 2.65625 -2.59375 L 2.65625 -10.5625 C 2.65625 -10.957031 2.632812 -11.273438 2.59375 -11.515625 C 2.550781 -11.765625 2.46875 -11.960938 2.34375 -12.109375 C 2.226562 -12.253906 2.054688 -12.351562 1.828125 -12.40625 C 1.597656 -12.457031 1.300781 -12.492188 0.9375 -12.515625 L 0.9375 -13.15625 L 6.140625 -13.15625 L 6.140625 -12.515625 C 5.773438 -12.503906 5.476562 -12.46875 5.25 -12.40625 C 5.03125 -12.351562 4.859375 -12.25 4.734375 -12.09375 C 4.617188 -11.945312 4.539062 -11.742188 4.5 -11.484375 C 4.457031 -11.222656 4.4375 -10.875 4.4375 -10.4375 L 4.4375 -3.078125 C 4.4375 -2.597656 4.484375 -2.207031 4.578125 -1.90625 C 4.679688 -1.601562 4.847656 -1.367188 5.078125 -1.203125 C 5.316406 -1.035156 5.628906 -0.921875 6.015625 -0.859375 C 6.398438 -0.796875 6.890625 -0.765625 7.484375 -0.765625 C 8.140625 -0.765625 8.6875 -0.800781 9.125 -0.875 C 9.570312 -0.945312 9.945312 -1.078125 10.25 -1.265625 C 10.550781 -1.460938 10.789062 -1.726562 10.96875 -2.0625 C 11.144531 -2.394531 11.296875 -2.832031 11.421875 -3.375 L 12.0625 -3.375 Z M 11.8125 0 "/></g></g></g><g fill="#ffffff" fill-opacity="1"><g transform="translate(164.743308, 317.801973)"><g><path d="M 1.140625 -0.9375 C 1.140625 -1.257812 1.25 -1.523438 1.46875 -1.734375 C 1.6875 -1.953125 1.945312 -2.0625 2.25 -2.0625 C 2.570312 -2.0625 2.84375 -1.953125 3.0625 -1.734375 C 3.28125 -1.523438 3.390625 -1.257812 3.390625 -0.9375 C 3.390625 -0.632812 3.28125 -0.375 3.0625 -0.15625 C 2.84375 0.0625 2.570312 0.171875 2.25 0.171875 C 1.945312 0.171875 1.6875 0.0625 1.46875 -0.15625 C 1.25 -0.375 1.140625 -0.632812 1.140625 -0.9375 Z M 1.140625 -0.9375 "/></g></g></g><g fill="#ffffff" fill-opacity="1"><g transform="translate(169.273861, 317.801973)"><g><path d="M 8.34375 -4.765625 L 3.78125 -4.765625 C 3.582031 -4.296875 3.414062 -3.878906 3.28125 -3.515625 C 3.144531 -3.160156 3.035156 -2.851562 2.953125 -2.59375 C 2.867188 -2.332031 2.804688 -2.109375 2.765625 -1.921875 C 2.734375 -1.742188 2.71875 -1.597656 2.71875 -1.484375 C 2.71875 -1.171875 2.816406 -0.953125 3.015625 -0.828125 C 3.222656 -0.710938 3.566406 -0.65625 4.046875 -0.65625 L 4.046875 0 L -0.109375 0 L -0.109375 -0.65625 C 0.160156 -0.6875 0.390625 -0.726562 0.578125 -0.78125 C 0.765625 -0.84375 0.925781 -0.921875 1.0625 -1.015625 C 1.207031 -1.117188 1.332031 -1.253906 1.4375 -1.421875 C 1.550781 -1.585938 1.660156 -1.789062 1.765625 -2.03125 L 6.203125 -13.15625 L 6.9375 -13.15625 L 10.8125 -3.515625 C 11.082031 -2.878906 11.3125 -2.367188 11.5 -1.984375 C 11.695312 -1.609375 11.882812 -1.320312 12.0625 -1.125 C 12.25 -0.9375 12.445312 -0.8125 12.65625 -0.75 C 12.863281 -0.695312 13.117188 -0.671875 13.421875 -0.671875 L 13.421875 0 L 7.84375 0 L 7.84375 -0.671875 C 8.445312 -0.671875 8.863281 -0.726562 9.09375 -0.84375 C 9.320312 -0.957031 9.4375 -1.144531 9.4375 -1.40625 C 9.4375 -1.519531 9.429688 -1.625 9.421875 -1.71875 C 9.410156 -1.8125 9.390625 -1.914062 9.359375 -2.03125 C 9.328125 -2.144531 9.285156 -2.269531 9.234375 -2.40625 C 9.179688 -2.550781 9.117188 -2.722656 9.046875 -2.921875 Z M 4.125 -5.625 L 8.015625 -5.625 L 6.125 -10.671875 Z M 4.125 -5.625 "/></g></g></g><g fill="#ffffff" fill-opacity="1"><g transform="translate(182.47232, 317.801973)"><g><path d="M 1.140625 -0.9375 C 1.140625 -1.257812 1.25 -1.523438 1.46875 -1.734375 C 1.6875 -1.953125 1.945312 -2.0625 2.25 -2.0625 C 2.570312 -2.0625 2.84375 -1.953125 3.0625 -1.734375 C 3.28125 -1.523438 3.390625 -1.257812 3.390625 -0.9375 C 3.390625 -0.632812 3.28125 -0.375 3.0625 -0.15625 C 2.84375 0.0625 2.570312 0.171875 2.25 0.171875 C 1.945312 0.171875 1.6875 0.0625 1.46875 -0.15625 C 1.25 -0.375 1.140625 -0.632812 1.140625 -0.9375 Z M 1.140625 -0.9375 "/></g></g></g><g fill="#ffffff" fill-opacity="1"><g transform="translate(187.002874, 317.801973)"><g><path d="M 14.25 -2.578125 L 16.921875 -10 C 17.078125 -10.445312 17.1875 -10.800781 17.25 -11.0625 C 17.320312 -11.320312 17.359375 -11.550781 17.359375 -11.75 C 17.359375 -12.039062 17.265625 -12.238281 17.078125 -12.34375 C 16.890625 -12.457031 16.554688 -12.515625 16.078125 -12.515625 L 16.078125 -13.15625 L 20.234375 -13.15625 L 20.234375 -12.515625 C 19.710938 -12.515625 19.316406 -12.40625 19.046875 -12.1875 C 18.785156 -11.96875 18.5625 -11.613281 18.375 -11.125 L 14.078125 0.171875 L 13.484375 0.171875 L 10.203125 -9.5625 L 6.5625 0.171875 L 5.96875 0.171875 L 2.40625 -9.640625 C 2.207031 -10.191406 2.023438 -10.648438 1.859375 -11.015625 C 1.691406 -11.390625 1.515625 -11.679688 1.328125 -11.890625 C 1.140625 -12.109375 0.925781 -12.265625 0.6875 -12.359375 C 0.445312 -12.453125 0.15625 -12.5 -0.1875 -12.5 L -0.1875 -13.15625 L 5.390625 -13.15625 L 5.390625 -12.5 C 4.804688 -12.5 4.394531 -12.445312 4.15625 -12.34375 C 3.925781 -12.238281 3.8125 -12.039062 3.8125 -11.75 C 3.8125 -11.59375 3.832031 -11.414062 3.875 -11.21875 C 3.925781 -11.03125 3.992188 -10.804688 4.078125 -10.546875 L 6.6875 -2.625 L 8.78125 -8.546875 C 8.945312 -8.992188 9.101562 -9.40625 9.25 -9.78125 C 9.40625 -10.164062 9.53125 -10.507812 9.625 -10.8125 C 9.46875 -11.144531 9.320312 -11.421875 9.1875 -11.640625 C 9.050781 -11.859375 8.914062 -12.03125 8.78125 -12.15625 C 8.65625 -12.28125 8.519531 -12.367188 8.375 -12.421875 C 8.238281 -12.472656 8.09375 -12.5 7.9375 -12.5 L 7.9375 -13.15625 L 13.15625 -13.15625 L 13.15625 -12.5 C 12.832031 -12.5 12.566406 -12.484375 12.359375 -12.453125 C 12.148438 -12.429688 11.988281 -12.394531 11.875 -12.34375 C 11.769531 -12.289062 11.695312 -12.21875 11.65625 -12.125 C 11.625 -12.039062 11.609375 -11.9375 11.609375 -11.8125 C 11.609375 -11.644531 11.640625 -11.4375 11.703125 -11.1875 C 11.765625 -10.9375 11.851562 -10.625 11.96875 -10.25 Z M 14.25 -2.578125 "/></g></g></g><g fill="#ffffff" fill-opacity="1"><g transform="translate(207.108313, 317.801973)"><g><path d="M 1.140625 -0.9375 C 1.140625 -1.257812 1.25 -1.523438 1.46875 -1.734375 C 1.6875 -1.953125 1.945312 -2.0625 2.25 -2.0625 C 2.570312 -2.0625 2.84375 -1.953125 3.0625 -1.734375 C 3.28125 -1.523438 3.390625 -1.257812 3.390625 -0.9375 C 3.390625 -0.632812 3.28125 -0.375 3.0625 -0.15625 C 2.84375 0.0625 2.570312 0.171875 2.25 0.171875 C 1.945312 0.171875 1.6875 0.0625 1.46875 -0.15625 C 1.25 -0.375 1.140625 -0.632812 1.140625 -0.9375 Z M 1.140625 -0.9375 "/></g></g></g><g fill="#ffffff" fill-opacity="1"><g transform="translate(211.638867, 317.801973)"><g><path d="M 0.984375 -4.015625 L 1.625 -4.015625 C 1.707031 -3.503906 1.859375 -3.039062 2.078125 -2.625 C 2.296875 -2.21875 2.570312 -1.867188 2.90625 -1.578125 C 3.25 -1.296875 3.640625 -1.078125 4.078125 -0.921875 C 4.515625 -0.773438 4.988281 -0.703125 5.5 -0.703125 C 6.34375 -0.703125 7.007812 -0.898438 7.5 -1.296875 C 7.988281 -1.691406 8.234375 -2.234375 8.234375 -2.921875 C 8.234375 -3.203125 8.1875 -3.460938 8.09375 -3.703125 C 8 -3.941406 7.835938 -4.171875 7.609375 -4.390625 C 7.378906 -4.617188 7.070312 -4.84375 6.6875 -5.0625 C 6.3125 -5.28125 5.832031 -5.515625 5.25 -5.765625 C 4.539062 -6.066406 3.945312 -6.359375 3.46875 -6.640625 C 2.988281 -6.929688 2.601562 -7.226562 2.3125 -7.53125 C 2.03125 -7.84375 1.828125 -8.171875 1.703125 -8.515625 C 1.585938 -8.867188 1.53125 -9.265625 1.53125 -9.703125 C 1.53125 -10.234375 1.625 -10.71875 1.8125 -11.15625 C 2.007812 -11.601562 2.273438 -11.988281 2.609375 -12.3125 C 2.953125 -12.632812 3.359375 -12.882812 3.828125 -13.0625 C 4.296875 -13.238281 4.8125 -13.328125 5.375 -13.328125 C 5.875 -13.328125 6.335938 -13.25 6.765625 -13.09375 C 7.203125 -12.9375 7.640625 -12.679688 8.078125 -12.328125 L 8.53125 -13.09375 L 8.921875 -13.09375 L 9.109375 -9.6875 L 8.484375 -9.6875 C 8.203125 -10.625 7.800781 -11.320312 7.28125 -11.78125 C 6.769531 -12.238281 6.148438 -12.46875 5.421875 -12.46875 C 4.722656 -12.46875 4.164062 -12.296875 3.75 -11.953125 C 3.34375 -11.609375 3.140625 -11.144531 3.140625 -10.5625 C 3.140625 -10.289062 3.1875 -10.039062 3.28125 -9.8125 C 3.375 -9.59375 3.519531 -9.382812 3.71875 -9.1875 C 3.925781 -8.988281 4.195312 -8.789062 4.53125 -8.59375 C 4.863281 -8.394531 5.273438 -8.1875 5.765625 -7.96875 C 6.609375 -7.59375 7.304688 -7.238281 7.859375 -6.90625 C 8.421875 -6.582031 8.863281 -6.257812 9.1875 -5.9375 C 9.519531 -5.613281 9.753906 -5.269531 9.890625 -4.90625 C 10.035156 -4.550781 10.109375 -4.148438 10.109375 -3.703125 C 10.109375 -3.140625 9.992188 -2.617188 9.765625 -2.140625 C 9.535156 -1.660156 9.210938 -1.25 8.796875 -0.90625 C 8.390625 -0.5625 7.898438 -0.296875 7.328125 -0.109375 C 6.765625 0.078125 6.140625 0.171875 5.453125 0.171875 C 4.804688 0.171875 4.222656 0.0820312 3.703125 -0.09375 C 3.179688 -0.28125 2.65625 -0.59375 2.125 -1.03125 L 1.640625 -0.1875 L 1.25 -0.1875 Z M 0.984375 -4.015625 "/></g></g></g><path stroke-linecap="butt" transform="matrix(0.753443, 0, 0, 0.75, 60.245585, 311.132118)" fill="none" stroke-linejoin="miter" d="M 0.000674777 1.000926 L 105.516309 1.000926 " stroke="#ffffff" stroke-width="2" stroke-opacity="1" stroke-miterlimit="4"/><path stroke-linecap="butt" transform="matrix(0.750677, 0.000000000000000411, -0.00000000000000041, 0.75, 236.822449, 311.132118)" fill="none" stroke-linejoin="miter" d="M 0.00235761 1.000926 L 103.908606 1.000926 " stroke="#ffffff" stroke-width="2" stroke-opacity="1" stroke-miterlimit="4"/></svg>